<?xml version="1.0" encoding="utf-8"?>
<!-- Generator: Adobe Illustrator 23.0.6, SVG Export Plug-In . SVG Version: 6.00 Build 0)  -->
<svg version="1.1" id="Layer_1" xmlns="http://www.w3.org/2000/svg" xmlns:xlink="http://www.w3.org/1999/xlink" x="0px" y="0px"
	 viewBox="0 0 124 111" style="enable-background:new 0 0 124 111;" xml:space="preserve">
<style type="text/css">
	.st0{fill:#154174;}
</style>
<g>
	<path class="st0" d="M51.5,87.5"/>
	<path class="st0" d="M24.9,51.1c-10,9.3-1,22.5,3.6,32.1c4.2,8.6,9.8,17.2,10.4,26.9c2-1.1,3.5-2.8,4.2-5c0.7-2.3,1.1-4.2,2.7-6
		c2.6-2.9,6.5-5.1,10.4-5c-5.2-7.2-8.9-15.5-15.3-21.8c-3.4-3.3-7.2-6.3-10.4-9.8c-1.4-1.5-2.7-3.1-3.8-4.9
		C25.5,55.5,25.2,53.5,24.9,51.1z"/>
	<path class="st0" d="M24.5,29.2c-2.6,3.3-0.1,7.8,1,11.3c0.3,1,1.2,5.6,1.2,5.6c0.1,1.4,0,2.9,0.3,4.3c0.5,2.6,2.6,5,4.3,6.9
		c1.8,1.9,3.9,3.3,5.9,4.9c3.5,2.6,7.3,5.1,10.3,8.2c3.6,3.8,5.8,8.8,7.3,13.7c0.6-7.4,3.6-15.2,8.8-20.5c0.9-1,2.1-1.2,3.1-2
		c1.7-1.5,0.6-3.3,0.6-5.2c0-1.5,1-2.4,1.4-3.8c0.3-1,0.4-1.3,0.4-2.4c0-0.6-0.4-1.9-0.1-2.4c0.7-1.1,2.5-0.5,3.2-1.8
		c1-1.7-0.2-3.7-1-5.2c-0.6-1.2-2.8-3.7-2.7-5.1c0-0.9,1.1-1.5,1.4-2.5c0.1-0.6,0-1.2,0-1.8c-0.1-1-0.1-1.3-0.8-1.8
		c-1.3-0.8-3.8-1-5.3-1.3c-4-0.8-8.1-1.4-12.2-1.6C42.5,26.1,33.3,27,24.5,29.2z"/>
	<path class="st0" d="M78.5,30.4c-0.9-2.3-4.5-4.5-6.3-6.1c-1.3-1.2-2.2-1.7-2.5-3.4c-0.3-1.4-0.5-2.8-0.9-4.2
		c-1.8-6-5.2-11.1-11.4-13c-1.4-0.4-2.8-0.6-4.2-0.8c-0.9-0.1-1.2-0.3-1.6-0.6c-0.2-0.2-0.5-0.8-1-1C48.9,0.4,46.7,1.6,45,2
		c-2.6,0.6-5,0.2-7.7,0.5c-1.2,0.1-8.8,1.8-5.6,4c-5.1,3.5-7.7,7.7-8.9,13.7c-0.7,3.7-0.3,7.5,0.5,11.2c9.9-3.4,20.3-4.3,30.7-3.3
		c5.1,0.5,10.1,1.3,15.1,2.5C70.5,31,80,34.4,78.5,30.4z"/>
	<path class="st0" d="M56.4,87.5c0.5,0.1,2.3-3.7,2.8-4.4c1.3-1.9,2.8-3.6,4.6-5.1c3.5-3.1,8.4-4.8,12.9-2.7c-0.6-4.2-3.3-8-7.1-9.9
		c-2-1-3-1.1-4.7,0.4c-1.5,1.3-2.4,2.9-3.2,4.7C61.2,71.8,55.5,87.3,56.4,87.5z"/>
	<path class="st0" d="M46.2,67.5"/>
	<path class="st0" d="M61.8,96.5c3.8,0.2,9.6,0.2,16.2-1.7c5.8-1.6,10.3-4,13.4-6c-3.1-3.9-6.3-7.8-9.4-11.6
		C75.3,83.6,68.6,90,61.8,96.5z"/>
	<g>
		<g>
			<path class="st0" d="M102.6,39.9c-0.1-1-0.3-2-0.8-2.9c-0.1-0.2-0.3-0.4-0.5-0.5c-1.1-0.5-2.2-0.6-3.3-0.6
				c-0.8,0-1.3,0.4-1.7,1.2c-0.3,0.6-0.6,1.2-0.9,1.8c-1.2,2.8-1.8,5.9-2.2,9.1c-0.5,3.5-0.9,7,0.1,10.6c-0.9,1-1.8,2-2.7,3.1
				c-0.9,1.1-2,1.6-3,2.5h-0.4c-0.6-0.6-1.1-0.3-1.5-0.1c-1,0.3-1.7,1.1-2.1,2.2c-0.4,1-0.8,1.6-1,2.5c-0.2,0.7-0.2,1.2-0.3,1.3
				c-0.2,1.3-1.4,5.6-4.1,9.9c-1.4,2.2-2.2,2.8-7.8,8.4c-5.5,5.5,9.6-8.9,10.1-8.3l0.1,0.1c2.1,2.4,4.2,4.9,6.3,7.3
				c0.3,0.3,0.5,0.6,0.7,0.9c0.3,0.4,0.5,0.6,0.6,0.6c0.1,0.1,0.8,0.8,0.9,0.7c0.1,0,0-0.3-0.6-1.3c0.7-0.9,1.3-1.5,1.6-1.6
				c0.3,0,0.6-0.1,0.9-0.1c1.4,0.1,2.5-0.6,3.5-1.7c1.5-1.7,2.5-3.8,3.5-6.1c0.2-0.4,0.3-1,0.3-1.5c0-0.8,0.1-2.8-0.2-2.9
				c0.9-1.7,1.4-3.5,0.3-5.3c0.3-0.5,0.6-0.9,0.9-1.4c0.5-0.8,0.5-1.6,0.2-2.5c-0.2-0.7-0.6-1.3-1.2-1.6c0.6-0.6,1-1.1,1-2
				s-0.4-1.6-1-2.1c1.1-1.1,1.8-2.6,2.3-4.2c1-3.1,1.5-6.3,1.9-9.6C102.6,43.9,102.8,41.9,102.6,39.9z M98.7,47.8
				c-0.9,5.5-2.7,9.8-4,9.6s-1.7-4.8-0.8-10.3c0.9-5.5,2.7-9.8,4-9.6C99.2,37.7,99.6,42.4,98.7,47.8z"/>
		</g>
	</g>
</g>
</svg>
